<?xml version="1.0" encoding="UTF-8" standalone="no"?>
<svg xmlns="http://www.w3.org/2000/svg" fill="none" height="137" viewBox="0 0 300 137" width="300">
  
  <path clip-rule="evenodd" d="M122.526 69.1576V105.564H142.778V91.708H149.074L158.479 105.564H181.201L169.516 88.3496L177.495 80.3583V52.6626H157.248L142.787 60.0328V54.768C142.787 53.6054 141.846 52.6626 140.685 52.6626H134.924L166.733 10.3387L204.342 44.1305L223.725 22.9659L248.476 44.1214H256.849L223.463 14.9313L201.756 33.2379L169.221 4.78753L169.196 4.815L164.965 1L97.3745 68.8217L89.5618 52.633H95.7512L75.7659 14.8514L56.2365 52.633H62.4259L49.2616 79.1133L57.5605 79.1203L42 111.396L115.274 130.621L100.877 97.9622L122.526 69.1576ZM252.024 105.57H235.812V52.668H256.059V101.529C256.059 103.761 254.252 105.57 252.024 105.57ZM216.483 110.077H199.436C195.92 110.077 193.06 112.942 193.06 116.464V122.916C193.06 126.437 195.92 129.303 199.436 129.303H216.483C219.999 129.303 222.86 126.437 222.86 122.916V116.464C222.86 112.942 219.999 110.077 216.483 110.077ZM217.073 122.916C217.073 123.236 216.803 123.506 216.483 123.506H199.436C199.117 123.506 198.847 123.236 198.847 122.916V116.464C198.847 116.144 199.117 115.873 199.436 115.873H216.483C216.803 115.873 217.073 116.144 217.073 116.464V122.916ZM188.225 115.98C188.093 115.764 187.876 115.764 187.743 115.98L185.748 119.241C185.616 119.458 185.616 119.811 185.748 120.027L187.744 123.289C187.876 123.505 188.093 123.505 188.225 123.289L190.22 120.027C190.353 119.811 190.353 119.458 190.22 119.241L188.225 115.98ZM227.262 110.077H250.685C254.201 110.077 257.062 112.942 257.062 116.464V122.916C257.062 126.437 254.201 129.303 250.685 129.303H233.049V137H227.262V110.077ZM251.275 122.916C251.275 123.236 251.005 123.506 250.685 123.506H233.049V115.873H250.685C251.005 115.873 251.275 116.144 251.275 116.464V122.916ZM121.805 116.464V122.916C121.805 126.437 124.666 129.303 128.182 129.303H149.176V123.506H128.182C127.862 123.506 127.592 123.236 127.592 122.916V116.464C127.592 116.144 127.862 115.873 128.182 115.873H149.176V110.077H128.182C124.666 110.077 121.805 112.942 121.805 116.464ZM227.135 94.2205V105.57H188.644C186.361 105.57 184.509 103.716 184.509 101.429V52.668H227.135V64.0177H204.756V73.4442H227.135V84.7939H204.756V94.2205H227.135ZM157.248 64.0951L142.787 71.4654L142.778 79.1133H157.248V64.0951ZM176.58 110.077H159.534C156.018 110.077 153.157 112.942 153.157 116.464V122.916C153.157 126.437 156.018 129.303 159.534 129.303H176.58C180.096 129.303 182.957 126.437 182.957 122.916V116.464C182.957 112.942 180.096 110.077 176.58 110.077ZM159.534 123.506H176.58C176.9 123.506 177.17 123.236 177.17 122.916V116.464C177.17 116.144 176.9 115.873 176.58 115.873H159.534C159.214 115.873 158.944 116.144 158.944 116.464V122.916C158.944 123.236 159.214 123.506 159.534 123.506Z" fill="white" fill-rule="evenodd"/>
  
</svg>
